<mxfile host="www.draw.io" modified="2019-11-22T11:05:19.504Z" agent="Mozilla/5.0 (Macintosh; Intel Mac OS X 10_14_6) AppleWebKit/537.36 (KHTML, like Gecko) Chrome/78.0.3904.108 Safari/537.36" etag="k6VpPmtBryCUZLL21PCq" version="12.2.9" type="github" pages="1">
  <diagram id="oV75i6zNvV4vw45p7fQQ" name="Page-1">
    <mxGraphModel dx="2013" dy="764" grid="1" gridSize="10" guides="1" tooltips="1" connect="1" arrows="1" fold="1" page="1" pageScale="1" pageWidth="827" pageHeight="1169" math="0" shadow="0">
      <root>
        <mxCell id="0"/>
        <mxCell id="1" parent="0"/>
        <mxCell id="oVnr9Sznni0pZj5Y-tHQ-1" value="Pool" style="swimlane;html=1;childLayout=stackLayout;horizontal=1;startSize=20;horizontalStack=0;rounded=0;shadow=0;labelBackgroundColor=none;strokeWidth=1;fontFamily=Verdana;fontSize=8;align=center;" vertex="1" parent="1">
          <mxGeometry x="-10" y="12" width="800" height="830" as="geometry"/>
        </mxCell>
        <mxCell id="oVnr9Sznni0pZj5Y-tHQ-2" value="Script Starts" style="swimlane;html=1;startSize=20;horizontal=0;" vertex="1" parent="oVnr9Sznni0pZj5Y-tHQ-1">
          <mxGeometry y="20" width="800" height="150" as="geometry"/>
        </mxCell>
        <mxCell id="oVnr9Sznni0pZj5Y-tHQ-80" style="edgeStyle=orthogonalEdgeStyle;rounded=0;orthogonalLoop=1;jettySize=auto;html=1;" edge="1" parent="oVnr9Sznni0pZj5Y-tHQ-2" source="oVnr9Sznni0pZj5Y-tHQ-4">
          <mxGeometry relative="1" as="geometry">
            <mxPoint x="710" y="75" as="targetPoint"/>
          </mxGeometry>
        </mxCell>
        <mxCell id="oVnr9Sznni0pZj5Y-tHQ-4" value="" style="ellipse;whiteSpace=wrap;html=1;rounded=0;shadow=0;labelBackgroundColor=none;strokeWidth=1;fontFamily=Verdana;fontSize=8;align=center;" vertex="1" parent="oVnr9Sznni0pZj5Y-tHQ-2">
          <mxGeometry x="72" y="60" width="30" height="30" as="geometry"/>
        </mxCell>
        <mxCell id="oVnr9Sznni0pZj5Y-tHQ-81" value="Option 5" style="text;html=1;align=center;verticalAlign=middle;resizable=0;points=[];;autosize=1;" vertex="1" parent="oVnr9Sznni0pZj5Y-tHQ-2">
          <mxGeometry x="620" y="50" width="60" height="20" as="geometry"/>
        </mxCell>
        <mxCell id="oVnr9Sznni0pZj5Y-tHQ-92" value="&lt;br&gt;Option" style="html=1;strokeWidth=2;shape=manualInput;whiteSpace=wrap;rounded=1;size=26;arcSize=11;" vertex="1" parent="oVnr9Sznni0pZj5Y-tHQ-2">
          <mxGeometry x="110" y="7" width="52" height="40" as="geometry"/>
        </mxCell>
        <mxCell id="oVnr9Sznni0pZj5Y-tHQ-102" value="" style="shape=actor;whiteSpace=wrap;html=1;" vertex="1" parent="oVnr9Sznni0pZj5Y-tHQ-2">
          <mxGeometry x="65" y="12" width="40" height="35" as="geometry"/>
        </mxCell>
        <mxCell id="oVnr9Sznni0pZj5Y-tHQ-135" value="Exit Script" style="strokeWidth=2;html=1;shape=mxgraph.flowchart.terminator;whiteSpace=wrap;" vertex="1" parent="oVnr9Sznni0pZj5Y-tHQ-2">
          <mxGeometry x="715" y="42.5" width="60" height="60" as="geometry"/>
        </mxCell>
        <mxCell id="oVnr9Sznni0pZj5Y-tHQ-14" value="Install Python" style="swimlane;html=1;startSize=20;horizontal=0;" vertex="1" parent="oVnr9Sznni0pZj5Y-tHQ-1">
          <mxGeometry y="170" width="800" height="180" as="geometry"/>
        </mxCell>
        <mxCell id="oVnr9Sznni0pZj5Y-tHQ-15" style="edgeStyle=orthogonalEdgeStyle;rounded=0;html=1;labelBackgroundColor=none;startArrow=none;startFill=0;startSize=5;endArrow=classicThin;endFill=1;endSize=5;jettySize=auto;orthogonalLoop=1;strokeWidth=1;fontFamily=Verdana;fontSize=8" edge="1" parent="oVnr9Sznni0pZj5Y-tHQ-14">
          <mxGeometry relative="1" as="geometry">
            <mxPoint x="222" y="68.5" as="sourcePoint"/>
            <mxPoint x="282" y="68.5" as="targetPoint"/>
          </mxGeometry>
        </mxCell>
        <mxCell id="oVnr9Sznni0pZj5Y-tHQ-159" style="edgeStyle=orthogonalEdgeStyle;rounded=0;orthogonalLoop=1;jettySize=auto;html=1;" edge="1" parent="oVnr9Sznni0pZj5Y-tHQ-14" source="oVnr9Sznni0pZj5Y-tHQ-75" target="oVnr9Sznni0pZj5Y-tHQ-100">
          <mxGeometry relative="1" as="geometry">
            <Array as="points">
              <mxPoint x="186" y="168"/>
            </Array>
          </mxGeometry>
        </mxCell>
        <mxCell id="oVnr9Sznni0pZj5Y-tHQ-75" value="Is Version Installed?" style="rhombus;whiteSpace=wrap;html=1;" vertex="1" parent="oVnr9Sznni0pZj5Y-tHQ-14">
          <mxGeometry x="146" y="28.5" width="80" height="80" as="geometry"/>
        </mxCell>
        <mxCell id="oVnr9Sznni0pZj5Y-tHQ-79" value="No" style="text;html=1;" vertex="1" parent="oVnr9Sznni0pZj5Y-tHQ-14">
          <mxGeometry x="236" y="70" width="36" height="10" as="geometry"/>
        </mxCell>
        <mxCell id="oVnr9Sznni0pZj5Y-tHQ-85" value="Failure" style="text;html=1;align=center;verticalAlign=middle;resizable=0;points=[];;autosize=1;" vertex="1" parent="oVnr9Sznni0pZj5Y-tHQ-14">
          <mxGeometry x="330" y="-3.5" width="50" height="20" as="geometry"/>
        </mxCell>
        <mxCell id="oVnr9Sznni0pZj5Y-tHQ-138" style="edgeStyle=orthogonalEdgeStyle;rounded=0;orthogonalLoop=1;jettySize=auto;html=1;entryX=0.126;entryY=0.688;entryDx=0;entryDy=0;entryPerimeter=0;" edge="1" parent="oVnr9Sznni0pZj5Y-tHQ-14" source="oVnr9Sznni0pZj5Y-tHQ-86" target="oVnr9Sznni0pZj5Y-tHQ-131">
          <mxGeometry relative="1" as="geometry"/>
        </mxCell>
        <mxCell id="oVnr9Sznni0pZj5Y-tHQ-86" value="&lt;font style=&quot;font-size: 10px&quot;&gt;Installs python&lt;/font&gt;" style="rounded=1;whiteSpace=wrap;html=1;shadow=1;labelBackgroundColor=none;strokeWidth=1;fontFamily=Verdana;fontSize=8;align=center;gradientColor=none;fillColor=#ffffff;" vertex="1" parent="oVnr9Sznni0pZj5Y-tHQ-14">
          <mxGeometry x="260" y="50" width="70" height="37" as="geometry"/>
        </mxCell>
        <mxCell id="oVnr9Sznni0pZj5Y-tHQ-93" value="&lt;br&gt;Version" style="html=1;strokeWidth=2;shape=manualInput;whiteSpace=wrap;rounded=1;size=26;arcSize=11;" vertex="1" parent="oVnr9Sznni0pZj5Y-tHQ-14">
          <mxGeometry x="84" y="90" width="52" height="40" as="geometry"/>
        </mxCell>
        <mxCell id="oVnr9Sznni0pZj5Y-tHQ-130" value="" style="edgeStyle=orthogonalEdgeStyle;rounded=0;orthogonalLoop=1;jettySize=auto;html=1;" edge="1" parent="oVnr9Sznni0pZj5Y-tHQ-14" source="oVnr9Sznni0pZj5Y-tHQ-95" target="oVnr9Sznni0pZj5Y-tHQ-96">
          <mxGeometry relative="1" as="geometry"/>
        </mxCell>
        <mxCell id="oVnr9Sznni0pZj5Y-tHQ-145" style="edgeStyle=orthogonalEdgeStyle;rounded=0;orthogonalLoop=1;jettySize=auto;html=1;" edge="1" parent="oVnr9Sznni0pZj5Y-tHQ-14" source="oVnr9Sznni0pZj5Y-tHQ-95" target="oVnr9Sznni0pZj5Y-tHQ-100">
          <mxGeometry relative="1" as="geometry">
            <Array as="points">
              <mxPoint x="508" y="138"/>
            </Array>
          </mxGeometry>
        </mxCell>
        <mxCell id="oVnr9Sznni0pZj5Y-tHQ-95" value="&lt;span style=&quot;font-family: &amp;#34;verdana&amp;#34; ; font-size: 10px ; white-space: normal&quot;&gt;Install requirements&lt;/span&gt;" style="strokeWidth=2;html=1;shape=mxgraph.flowchart.loop_limit;whiteSpace=wrap;shadow=1;" vertex="1" parent="oVnr9Sznni0pZj5Y-tHQ-14">
          <mxGeometry x="468" y="52" width="80" height="35" as="geometry"/>
        </mxCell>
        <mxCell id="oVnr9Sznni0pZj5Y-tHQ-146" style="edgeStyle=orthogonalEdgeStyle;rounded=0;orthogonalLoop=1;jettySize=auto;html=1;entryX=0.65;entryY=0.971;entryDx=0;entryDy=0;entryPerimeter=0;" edge="1" parent="oVnr9Sznni0pZj5Y-tHQ-14" source="oVnr9Sznni0pZj5Y-tHQ-96" target="oVnr9Sznni0pZj5Y-tHQ-95">
          <mxGeometry relative="1" as="geometry">
            <Array as="points">
              <mxPoint x="624" y="123"/>
              <mxPoint x="520" y="123"/>
            </Array>
          </mxGeometry>
        </mxCell>
        <mxCell id="oVnr9Sznni0pZj5Y-tHQ-158" style="edgeStyle=orthogonalEdgeStyle;rounded=0;orthogonalLoop=1;jettySize=auto;html=1;entryX=0;entryY=0.5;entryDx=0;entryDy=0;" edge="1" parent="oVnr9Sznni0pZj5Y-tHQ-14" source="oVnr9Sznni0pZj5Y-tHQ-96" target="oVnr9Sznni0pZj5Y-tHQ-157">
          <mxGeometry relative="1" as="geometry"/>
        </mxCell>
        <mxCell id="oVnr9Sznni0pZj5Y-tHQ-96" value="Resolve&lt;br&gt;Error?" style="strokeWidth=2;html=1;shape=mxgraph.flowchart.decision;whiteSpace=wrap;shadow=1;" vertex="1" parent="oVnr9Sznni0pZj5Y-tHQ-14">
          <mxGeometry x="588" y="36" width="72" height="67" as="geometry"/>
        </mxCell>
        <mxCell id="oVnr9Sznni0pZj5Y-tHQ-99" value="Error" style="text;html=1;align=center;verticalAlign=middle;resizable=0;points=[];;autosize=1;" vertex="1" parent="oVnr9Sznni0pZj5Y-tHQ-14">
          <mxGeometry x="541" y="48" width="40" height="20" as="geometry"/>
        </mxCell>
        <mxCell id="oVnr9Sznni0pZj5Y-tHQ-100" value="Exit" style="strokeWidth=2;html=1;shape=mxgraph.flowchart.terminator;whiteSpace=wrap;" vertex="1" parent="oVnr9Sznni0pZj5Y-tHQ-14">
          <mxGeometry x="738" y="113.5" width="60" height="60" as="geometry"/>
        </mxCell>
        <mxCell id="oVnr9Sznni0pZj5Y-tHQ-104" value="Option 1" style="text;html=1;align=center;verticalAlign=middle;resizable=0;points=[];;autosize=1;" vertex="1" parent="oVnr9Sznni0pZj5Y-tHQ-14">
          <mxGeometry x="104" y="5" width="60" height="20" as="geometry"/>
        </mxCell>
        <mxCell id="oVnr9Sznni0pZj5Y-tHQ-122" style="edgeStyle=orthogonalEdgeStyle;rounded=0;orthogonalLoop=1;jettySize=auto;html=1;entryX=0;entryY=0.5;entryDx=0;entryDy=0;" edge="1" parent="oVnr9Sznni0pZj5Y-tHQ-14" source="oVnr9Sznni0pZj5Y-tHQ-108" target="oVnr9Sznni0pZj5Y-tHQ-75">
          <mxGeometry relative="1" as="geometry"/>
        </mxCell>
        <mxCell id="oVnr9Sznni0pZj5Y-tHQ-108" value="" style="shape=actor;whiteSpace=wrap;html=1;" vertex="1" parent="oVnr9Sznni0pZj5Y-tHQ-14">
          <mxGeometry x="82" y="52" width="38" height="35" as="geometry"/>
        </mxCell>
        <mxCell id="oVnr9Sznni0pZj5Y-tHQ-144" style="edgeStyle=orthogonalEdgeStyle;rounded=0;orthogonalLoop=1;jettySize=auto;html=1;exitX=0.5;exitY=1;exitDx=0;exitDy=0;exitPerimeter=0;entryX=-0.017;entryY=0.658;entryDx=0;entryDy=0;entryPerimeter=0;" edge="1" parent="oVnr9Sznni0pZj5Y-tHQ-14" target="oVnr9Sznni0pZj5Y-tHQ-100">
          <mxGeometry relative="1" as="geometry">
            <mxPoint x="396" y="79" as="sourcePoint"/>
            <mxPoint x="720" y="153" as="targetPoint"/>
            <Array as="points">
              <mxPoint x="396" y="153"/>
            </Array>
          </mxGeometry>
        </mxCell>
        <mxCell id="oVnr9Sznni0pZj5Y-tHQ-131" value="&lt;br&gt;&lt;br&gt;Download&amp;nbsp;&lt;br&gt;from git" style="strokeWidth=2;html=1;shape=mxgraph.flowchart.extract_or_measurement;whiteSpace=wrap;shadow=0;fillColor=none;" vertex="1" parent="oVnr9Sznni0pZj5Y-tHQ-14">
          <mxGeometry x="348" y="30" width="95" height="56" as="geometry"/>
        </mxCell>
        <mxCell id="oVnr9Sznni0pZj5Y-tHQ-142" value="No" style="text;html=1;align=center;verticalAlign=middle;resizable=0;points=[];;autosize=1;" vertex="1" parent="oVnr9Sznni0pZj5Y-tHQ-14">
          <mxGeometry x="395" y="98.5" width="30" height="20" as="geometry"/>
        </mxCell>
        <mxCell id="oVnr9Sznni0pZj5Y-tHQ-147" value="&lt;br&gt;No" style="text;html=1;align=center;verticalAlign=middle;resizable=0;points=[];;autosize=1;" vertex="1" parent="oVnr9Sznni0pZj5Y-tHQ-14">
          <mxGeometry x="557.5" y="95" width="30" height="30" as="geometry"/>
        </mxCell>
        <mxCell id="oVnr9Sznni0pZj5Y-tHQ-151" value="Yes" style="text;html=1;align=center;verticalAlign=middle;resizable=0;points=[];;autosize=1;" vertex="1" parent="oVnr9Sznni0pZj5Y-tHQ-14">
          <mxGeometry x="186" y="115" width="40" height="20" as="geometry"/>
        </mxCell>
        <mxCell id="oVnr9Sznni0pZj5Y-tHQ-84" style="edgeStyle=orthogonalEdgeStyle;rounded=0;orthogonalLoop=1;jettySize=auto;html=1;entryX=0.767;entryY=-0.025;entryDx=0;entryDy=0;entryPerimeter=0;exitX=0.5;exitY=0;exitDx=0;exitDy=0;" edge="1" parent="oVnr9Sznni0pZj5Y-tHQ-14" source="oVnr9Sznni0pZj5Y-tHQ-86" target="oVnr9Sznni0pZj5Y-tHQ-100">
          <mxGeometry relative="1" as="geometry">
            <mxPoint x="296" y="44" as="sourcePoint"/>
            <mxPoint x="783" y="105" as="targetPoint"/>
            <Array as="points">
              <mxPoint x="296" y="50"/>
              <mxPoint x="296" y="13"/>
              <mxPoint x="783" y="13"/>
            </Array>
          </mxGeometry>
        </mxCell>
        <mxCell id="oVnr9Sznni0pZj5Y-tHQ-157" value="&lt;font style=&quot;font-size: 10px&quot;&gt;Upgrade/&lt;br&gt;Downgrade&lt;br&gt;package&lt;br&gt;&lt;/font&gt;" style="rounded=1;whiteSpace=wrap;html=1;shadow=1;labelBackgroundColor=none;strokeWidth=1;fontFamily=Verdana;fontSize=8;align=center;" vertex="1" parent="oVnr9Sznni0pZj5Y-tHQ-14">
          <mxGeometry x="694" y="51" width="70" height="37" as="geometry"/>
        </mxCell>
        <mxCell id="oVnr9Sznni0pZj5Y-tHQ-162" value="Success/&lt;br&gt;Failure" style="text;html=1;align=center;verticalAlign=middle;resizable=0;points=[];;autosize=1;" vertex="1" parent="oVnr9Sznni0pZj5Y-tHQ-14">
          <mxGeometry x="726" y="18" width="60" height="30" as="geometry"/>
        </mxCell>
        <mxCell id="oVnr9Sznni0pZj5Y-tHQ-18" value="Re-Build Python" style="swimlane;html=1;startSize=20;horizontal=0;" vertex="1" parent="oVnr9Sznni0pZj5Y-tHQ-1">
          <mxGeometry y="350" width="800" height="180" as="geometry"/>
        </mxCell>
        <mxCell id="oVnr9Sznni0pZj5Y-tHQ-20" value="&lt;font style=&quot;font-size: 10px&quot;&gt;Uninstall Python&lt;/font&gt;" style="rounded=1;whiteSpace=wrap;html=1;shadow=0;labelBackgroundColor=none;strokeWidth=1;fontFamily=Verdana;fontSize=8;align=center;" vertex="1" parent="oVnr9Sznni0pZj5Y-tHQ-18">
          <mxGeometry x="264" y="59.00000000000003" width="70" height="37" as="geometry"/>
        </mxCell>
        <mxCell id="oVnr9Sznni0pZj5Y-tHQ-94" value="&lt;br&gt;Version" style="html=1;strokeWidth=2;shape=manualInput;whiteSpace=wrap;rounded=1;size=26;arcSize=11;" vertex="1" parent="oVnr9Sznni0pZj5Y-tHQ-18">
          <mxGeometry x="78" y="110" width="52" height="40" as="geometry"/>
        </mxCell>
        <mxCell id="oVnr9Sznni0pZj5Y-tHQ-105" value="Option 2" style="text;html=1;" vertex="1" parent="oVnr9Sznni0pZj5Y-tHQ-18">
          <mxGeometry x="101" width="70" height="30" as="geometry"/>
        </mxCell>
        <mxCell id="oVnr9Sznni0pZj5Y-tHQ-125" style="edgeStyle=orthogonalEdgeStyle;rounded=0;orthogonalLoop=1;jettySize=auto;html=1;entryX=0;entryY=0.5;entryDx=0;entryDy=0;" edge="1" parent="oVnr9Sznni0pZj5Y-tHQ-18" source="oVnr9Sznni0pZj5Y-tHQ-111" target="oVnr9Sznni0pZj5Y-tHQ-123">
          <mxGeometry relative="1" as="geometry"/>
        </mxCell>
        <mxCell id="oVnr9Sznni0pZj5Y-tHQ-111" value="" style="shape=actor;whiteSpace=wrap;html=1;" vertex="1" parent="oVnr9Sznni0pZj5Y-tHQ-18">
          <mxGeometry x="78" y="60" width="42" height="35" as="geometry"/>
        </mxCell>
        <mxCell id="oVnr9Sznni0pZj5Y-tHQ-127" value="" style="edgeStyle=orthogonalEdgeStyle;rounded=0;orthogonalLoop=1;jettySize=auto;html=1;" edge="1" parent="oVnr9Sznni0pZj5Y-tHQ-18" source="oVnr9Sznni0pZj5Y-tHQ-123" target="oVnr9Sznni0pZj5Y-tHQ-20">
          <mxGeometry relative="1" as="geometry"/>
        </mxCell>
        <mxCell id="oVnr9Sznni0pZj5Y-tHQ-123" value="Is Version Installed?" style="rhombus;whiteSpace=wrap;html=1;" vertex="1" parent="oVnr9Sznni0pZj5Y-tHQ-18">
          <mxGeometry x="152" y="38" width="80" height="80" as="geometry"/>
        </mxCell>
        <mxCell id="oVnr9Sznni0pZj5Y-tHQ-168" value="&lt;font style=&quot;font-size: 10px&quot;&gt;Install Python&lt;/font&gt;" style="rounded=1;whiteSpace=wrap;html=1;shadow=0;labelBackgroundColor=none;strokeWidth=1;fontFamily=Verdana;fontSize=8;align=center;" vertex="1" parent="oVnr9Sznni0pZj5Y-tHQ-18">
          <mxGeometry x="511" y="59" width="70" height="37" as="geometry"/>
        </mxCell>
        <mxCell id="oVnr9Sznni0pZj5Y-tHQ-47" value="Uninstall Python" style="swimlane;html=1;startSize=20;horizontal=0;" vertex="1" parent="oVnr9Sznni0pZj5Y-tHQ-1">
          <mxGeometry y="530" width="800" height="150" as="geometry"/>
        </mxCell>
        <mxCell id="oVnr9Sznni0pZj5Y-tHQ-48" style="edgeStyle=orthogonalEdgeStyle;rounded=0;html=1;labelBackgroundColor=none;startArrow=none;startFill=0;startSize=5;endArrow=classicThin;endFill=1;endSize=5;jettySize=auto;orthogonalLoop=1;strokeWidth=1;fontFamily=Verdana;fontSize=8;" edge="1" parent="oVnr9Sznni0pZj5Y-tHQ-47" source="oVnr9Sznni0pZj5Y-tHQ-49" target="oVnr9Sznni0pZj5Y-tHQ-51">
          <mxGeometry relative="1" as="geometry"/>
        </mxCell>
        <mxCell id="oVnr9Sznni0pZj5Y-tHQ-49" value="" style="rounded=1;whiteSpace=wrap;html=1;shadow=0;labelBackgroundColor=none;strokeWidth=1;fontFamily=Verdana;fontSize=8;align=center;" vertex="1" parent="oVnr9Sznni0pZj5Y-tHQ-47">
          <mxGeometry x="262" y="57.00000000000003" width="70" height="37" as="geometry"/>
        </mxCell>
        <mxCell id="oVnr9Sznni0pZj5Y-tHQ-50" value="Yes" style="edgeStyle=orthogonalEdgeStyle;rounded=0;html=1;entryX=0;entryY=0.5;labelBackgroundColor=none;startArrow=none;startFill=0;startSize=5;endArrow=classicThin;endFill=1;endSize=5;jettySize=auto;orthogonalLoop=1;strokeWidth=1;fontFamily=Verdana;fontSize=8" edge="1" parent="oVnr9Sznni0pZj5Y-tHQ-47" source="oVnr9Sznni0pZj5Y-tHQ-51" target="oVnr9Sznni0pZj5Y-tHQ-53">
          <mxGeometry x="-0.5006" y="6" relative="1" as="geometry">
            <mxPoint as="offset"/>
          </mxGeometry>
        </mxCell>
        <mxCell id="oVnr9Sznni0pZj5Y-tHQ-51" value="" style="strokeWidth=1;html=1;shape=mxgraph.flowchart.decision;whiteSpace=wrap;rounded=1;shadow=0;labelBackgroundColor=none;fontFamily=Verdana;fontSize=8;align=center;" vertex="1" parent="oVnr9Sznni0pZj5Y-tHQ-47">
          <mxGeometry x="362" y="60.500000000000064" width="30" height="30" as="geometry"/>
        </mxCell>
        <mxCell id="oVnr9Sznni0pZj5Y-tHQ-52" style="edgeStyle=orthogonalEdgeStyle;rounded=0;html=1;labelBackgroundColor=none;startArrow=none;startFill=0;startSize=5;endArrow=classicThin;endFill=1;endSize=5;jettySize=auto;orthogonalLoop=1;strokeColor=#000000;strokeWidth=1;fontFamily=Verdana;fontSize=8;fontColor=#000000;" edge="1" parent="oVnr9Sznni0pZj5Y-tHQ-47" source="oVnr9Sznni0pZj5Y-tHQ-53" target="oVnr9Sznni0pZj5Y-tHQ-54">
          <mxGeometry relative="1" as="geometry"/>
        </mxCell>
        <mxCell id="oVnr9Sznni0pZj5Y-tHQ-53" value="" style="shape=mxgraph.bpmn.shape;html=1;verticalLabelPosition=bottom;labelBackgroundColor=#ffffff;verticalAlign=top;perimeter=rhombusPerimeter;background=gateway;outline=none;symbol=parallelGw;rounded=1;shadow=0;strokeWidth=1;fontFamily=Verdana;fontSize=8;align=center;" vertex="1" parent="oVnr9Sznni0pZj5Y-tHQ-47">
          <mxGeometry x="472" y="60.500000000000064" width="30" height="30" as="geometry"/>
        </mxCell>
        <mxCell id="oVnr9Sznni0pZj5Y-tHQ-54" value="" style="rounded=1;whiteSpace=wrap;html=1;shadow=0;labelBackgroundColor=none;strokeWidth=1;fontFamily=Verdana;fontSize=8;align=center;" vertex="1" parent="oVnr9Sznni0pZj5Y-tHQ-47">
          <mxGeometry x="562" y="57" width="70" height="37" as="geometry"/>
        </mxCell>
        <mxCell id="oVnr9Sznni0pZj5Y-tHQ-65" value="" style="rounded=1;whiteSpace=wrap;html=1;shadow=0;labelBackgroundColor=none;strokeWidth=1;fontFamily=Verdana;fontSize=8;align=center;" vertex="1" parent="oVnr9Sznni0pZj5Y-tHQ-47">
          <mxGeometry x="152" y="56.5" width="70" height="37" as="geometry"/>
        </mxCell>
        <mxCell id="oVnr9Sznni0pZj5Y-tHQ-106" value="Option 3" style="text;html=1;" vertex="1" parent="oVnr9Sznni0pZj5Y-tHQ-47">
          <mxGeometry x="93" y="-0.5" width="70" height="30" as="geometry"/>
        </mxCell>
        <mxCell id="oVnr9Sznni0pZj5Y-tHQ-55" value="Lane 3" style="swimlane;html=1;startSize=20;horizontal=0;" vertex="1" parent="oVnr9Sznni0pZj5Y-tHQ-1">
          <mxGeometry y="680" width="800" height="150" as="geometry"/>
        </mxCell>
        <mxCell id="oVnr9Sznni0pZj5Y-tHQ-56" style="edgeStyle=orthogonalEdgeStyle;rounded=0;html=1;labelBackgroundColor=none;startArrow=none;startFill=0;startSize=5;endArrow=classicThin;endFill=1;endSize=5;jettySize=auto;orthogonalLoop=1;strokeWidth=1;fontFamily=Verdana;fontSize=8;" edge="1" parent="oVnr9Sznni0pZj5Y-tHQ-55">
          <mxGeometry relative="1" as="geometry">
            <mxPoint x="332" y="76" as="sourcePoint"/>
            <mxPoint x="362" y="76" as="targetPoint"/>
          </mxGeometry>
        </mxCell>
        <mxCell id="oVnr9Sznni0pZj5Y-tHQ-57" value="" style="rounded=1;whiteSpace=wrap;html=1;shadow=0;labelBackgroundColor=none;strokeWidth=1;fontFamily=Verdana;fontSize=8;align=center;" vertex="1" parent="oVnr9Sznni0pZj5Y-tHQ-55">
          <mxGeometry x="230" y="57.00000000000003" width="70" height="37" as="geometry"/>
        </mxCell>
        <mxCell id="oVnr9Sznni0pZj5Y-tHQ-58" value="Yes" style="edgeStyle=orthogonalEdgeStyle;rounded=0;html=1;entryX=0;entryY=0.5;labelBackgroundColor=none;startArrow=none;startFill=0;startSize=5;endArrow=classicThin;endFill=1;endSize=5;jettySize=auto;orthogonalLoop=1;strokeWidth=1;fontFamily=Verdana;fontSize=8" edge="1" parent="oVnr9Sznni0pZj5Y-tHQ-55">
          <mxGeometry x="-0.5006" y="6" relative="1" as="geometry">
            <mxPoint as="offset"/>
            <mxPoint x="392" y="76" as="sourcePoint"/>
            <mxPoint x="472" y="76" as="targetPoint"/>
          </mxGeometry>
        </mxCell>
        <mxCell id="oVnr9Sznni0pZj5Y-tHQ-59" value="" style="strokeWidth=1;html=1;shape=mxgraph.flowchart.decision;whiteSpace=wrap;rounded=1;shadow=0;labelBackgroundColor=none;fontFamily=Verdana;fontSize=8;align=center;" vertex="1" parent="oVnr9Sznni0pZj5Y-tHQ-55">
          <mxGeometry x="330" y="60.500000000000064" width="30" height="30" as="geometry"/>
        </mxCell>
        <mxCell id="oVnr9Sznni0pZj5Y-tHQ-60" style="edgeStyle=orthogonalEdgeStyle;rounded=0;html=1;labelBackgroundColor=none;startArrow=none;startFill=0;startSize=5;endArrow=classicThin;endFill=1;endSize=5;jettySize=auto;orthogonalLoop=1;strokeColor=#000000;strokeWidth=1;fontFamily=Verdana;fontSize=8;fontColor=#000000;" edge="1" parent="oVnr9Sznni0pZj5Y-tHQ-55">
          <mxGeometry relative="1" as="geometry">
            <mxPoint x="502" y="75.5" as="sourcePoint"/>
            <mxPoint x="562" y="75.5" as="targetPoint"/>
          </mxGeometry>
        </mxCell>
        <mxCell id="oVnr9Sznni0pZj5Y-tHQ-61" value="" style="shape=mxgraph.bpmn.shape;html=1;verticalLabelPosition=bottom;labelBackgroundColor=#ffffff;verticalAlign=top;perimeter=rhombusPerimeter;background=gateway;outline=none;symbol=parallelGw;rounded=1;shadow=0;strokeWidth=1;fontFamily=Verdana;fontSize=8;align=center;" vertex="1" parent="oVnr9Sznni0pZj5Y-tHQ-55">
          <mxGeometry x="440" y="60.500000000000064" width="30" height="30" as="geometry"/>
        </mxCell>
        <mxCell id="oVnr9Sznni0pZj5Y-tHQ-62" value="" style="rounded=1;whiteSpace=wrap;html=1;shadow=0;labelBackgroundColor=none;strokeWidth=1;fontFamily=Verdana;fontSize=8;align=center;" vertex="1" parent="oVnr9Sznni0pZj5Y-tHQ-55">
          <mxGeometry x="530" y="57" width="70" height="37" as="geometry"/>
        </mxCell>
        <mxCell id="oVnr9Sznni0pZj5Y-tHQ-66" value="" style="rounded=1;whiteSpace=wrap;html=1;shadow=0;labelBackgroundColor=none;strokeWidth=1;fontFamily=Verdana;fontSize=8;align=center;" vertex="1" parent="oVnr9Sznni0pZj5Y-tHQ-55">
          <mxGeometry x="120" y="56.5" width="70" height="37" as="geometry"/>
        </mxCell>
        <mxCell id="oVnr9Sznni0pZj5Y-tHQ-107" value="Option 4" style="text;html=1;" vertex="1" parent="oVnr9Sznni0pZj5Y-tHQ-55">
          <mxGeometry x="93" width="70" height="30" as="geometry"/>
        </mxCell>
        <mxCell id="oVnr9Sznni0pZj5Y-tHQ-120" style="edgeStyle=orthogonalEdgeStyle;rounded=0;orthogonalLoop=1;jettySize=auto;html=1;" edge="1" parent="oVnr9Sznni0pZj5Y-tHQ-1" source="oVnr9Sznni0pZj5Y-tHQ-4" target="oVnr9Sznni0pZj5Y-tHQ-107">
          <mxGeometry relative="1" as="geometry">
            <Array as="points">
              <mxPoint x="50" y="95"/>
              <mxPoint x="50" y="695"/>
            </Array>
          </mxGeometry>
        </mxCell>
        <mxCell id="oVnr9Sznni0pZj5Y-tHQ-121" style="edgeStyle=orthogonalEdgeStyle;rounded=0;orthogonalLoop=1;jettySize=auto;html=1;" edge="1" parent="oVnr9Sznni0pZj5Y-tHQ-1" target="oVnr9Sznni0pZj5Y-tHQ-104">
          <mxGeometry relative="1" as="geometry">
            <mxPoint x="86" y="109.86606874731854" as="sourcePoint"/>
            <mxPoint x="93" y="185" as="targetPoint"/>
            <Array as="points">
              <mxPoint x="86" y="185"/>
            </Array>
          </mxGeometry>
        </mxCell>
        <mxCell id="oVnr9Sznni0pZj5Y-tHQ-114" style="edgeStyle=orthogonalEdgeStyle;rounded=0;orthogonalLoop=1;jettySize=auto;html=1;exitX=0;exitY=0.5;exitDx=0;exitDy=0;" edge="1" parent="oVnr9Sznni0pZj5Y-tHQ-1" source="oVnr9Sznni0pZj5Y-tHQ-4" target="oVnr9Sznni0pZj5Y-tHQ-105">
          <mxGeometry relative="1" as="geometry">
            <mxPoint x="84" y="365" as="targetPoint"/>
            <mxPoint x="71" y="115.48331477354793" as="sourcePoint"/>
            <Array as="points">
              <mxPoint x="71" y="95"/>
              <mxPoint x="71" y="365"/>
            </Array>
          </mxGeometry>
        </mxCell>
        <mxCell id="oVnr9Sznni0pZj5Y-tHQ-70" value="" style="endArrow=classic;html=1;" edge="1" parent="1">
          <mxGeometry width="50" height="50" relative="1" as="geometry">
            <mxPoint x="-10" y="872" as="sourcePoint"/>
            <mxPoint x="40" y="822" as="targetPoint"/>
          </mxGeometry>
        </mxCell>
        <mxCell id="oVnr9Sznni0pZj5Y-tHQ-77" value="" style="endArrow=classic;html=1;" edge="1" parent="1">
          <mxGeometry width="50" height="50" relative="1" as="geometry">
            <mxPoint x="-20" y="952" as="sourcePoint"/>
            <mxPoint x="30" y="902" as="targetPoint"/>
          </mxGeometry>
        </mxCell>
        <mxCell id="oVnr9Sznni0pZj5Y-tHQ-82" value="" style="rounded=0;whiteSpace=wrap;html=1;" vertex="1" parent="1">
          <mxGeometry x="-20" y="982" width="120" height="60" as="geometry"/>
        </mxCell>
        <mxCell id="oVnr9Sznni0pZj5Y-tHQ-115" style="edgeStyle=orthogonalEdgeStyle;rounded=0;orthogonalLoop=1;jettySize=auto;html=1;entryX=0;entryY=0.5;entryDx=0;entryDy=0;" edge="1" parent="1" target="oVnr9Sznni0pZj5Y-tHQ-106">
          <mxGeometry relative="1" as="geometry">
            <mxPoint x="75" y="564" as="targetPoint"/>
            <mxPoint x="60" y="107" as="sourcePoint"/>
            <Array as="points">
              <mxPoint x="52" y="107"/>
              <mxPoint x="52" y="557"/>
            </Array>
          </mxGeometry>
        </mxCell>
        <mxCell id="oVnr9Sznni0pZj5Y-tHQ-139" style="edgeStyle=orthogonalEdgeStyle;rounded=0;orthogonalLoop=1;jettySize=auto;html=1;exitX=0.78;exitY=0.5;exitDx=0;exitDy=0;exitPerimeter=0;" edge="1" parent="1">
          <mxGeometry relative="1" as="geometry">
            <mxPoint x="457" y="248" as="targetPoint"/>
            <mxPoint x="419" y="248" as="sourcePoint"/>
          </mxGeometry>
        </mxCell>
        <mxCell id="oVnr9Sznni0pZj5Y-tHQ-140" value="Yes" style="text;html=1;align=center;verticalAlign=middle;resizable=0;points=[];;autosize=1;" vertex="1" parent="1">
          <mxGeometry x="417" y="227" width="40" height="20" as="geometry"/>
        </mxCell>
        <mxCell id="oVnr9Sznni0pZj5Y-tHQ-156" value="Sucess" style="text;html=1;align=center;verticalAlign=middle;resizable=0;points=[];;autosize=1;" vertex="1" parent="1">
          <mxGeometry x="316" y="222" width="50" height="20" as="geometry"/>
        </mxCell>
        <mxCell id="oVnr9Sznni0pZj5Y-tHQ-160" value="Yes" style="text;html=1;align=center;verticalAlign=middle;resizable=0;points=[];;autosize=1;" vertex="1" parent="1">
          <mxGeometry x="647" y="235" width="40" height="20" as="geometry"/>
        </mxCell>
        <mxCell id="oVnr9Sznni0pZj5Y-tHQ-161" style="edgeStyle=orthogonalEdgeStyle;rounded=0;orthogonalLoop=1;jettySize=auto;html=1;" edge="1" parent="1" source="oVnr9Sznni0pZj5Y-tHQ-157">
          <mxGeometry relative="1" as="geometry">
            <mxPoint x="490" y="233" as="targetPoint"/>
            <Array as="points">
              <mxPoint x="719" y="210"/>
              <mxPoint x="490" y="210"/>
            </Array>
          </mxGeometry>
        </mxCell>
        <mxCell id="oVnr9Sznni0pZj5Y-tHQ-169" value="" style="edgeStyle=orthogonalEdgeStyle;rounded=0;orthogonalLoop=1;jettySize=auto;html=1;shadow=0;strokeColor=#000000;" edge="1" parent="1" source="oVnr9Sznni0pZj5Y-tHQ-165" target="oVnr9Sznni0pZj5Y-tHQ-168">
          <mxGeometry relative="1" as="geometry"/>
        </mxCell>
        <mxCell id="oVnr9Sznni0pZj5Y-tHQ-165" value="Uninstalled?&amp;nbsp;" style="strokeWidth=2;html=1;shape=mxgraph.flowchart.decision;whiteSpace=wrap;shadow=1;" vertex="1" parent="1">
          <mxGeometry x="369" y="400" width="95" height="80" as="geometry"/>
        </mxCell>
        <mxCell id="oVnr9Sznni0pZj5Y-tHQ-167" value="" style="edgeStyle=orthogonalEdgeStyle;rounded=0;orthogonalLoop=1;jettySize=auto;html=1;shadow=0;strokeColor=#000000;" edge="1" parent="1" source="oVnr9Sznni0pZj5Y-tHQ-20" target="oVnr9Sznni0pZj5Y-tHQ-165">
          <mxGeometry relative="1" as="geometry"/>
        </mxCell>
      </root>
    </mxGraphModel>
  </diagram>
</mxfile>
